<?xml version="1.0" standalone="no"?>
<!DOCTYPE svg PUBLIC "-//W3C//DTD SVG 20010904//EN"
 "http://www.w3.org/TR/2001/REC-SVG-20010904/DTD/svg10.dtd">
<svg version="1.0" xmlns="http://www.w3.org/2000/svg"
 width="500.000000pt" height="500.000000pt" viewBox="0 0 500.000000 500.000000"
 preserveAspectRatio="xMidYMid meet">

<g transform="translate(0.000000,500.000000) scale(0.100000,-0.100000)"
fill="#d40000" stroke="none">
<path d="M2462 4687 c-7 -8 -15 -28 -18 -45 -4 -18 -10 -32 -15 -32 -5 0 -12
-18 -15 -40 -4 -22 -10 -40 -14 -40 -5 0 -12 -14 -15 -32 -4 -18 -11 -39 -16
-48 -6 -12 -15 -35 -24 -60 -6 -16 -19 -49 -31 -77 -8 -17 -14 -38 -14 -47 0
-9 -4 -16 -10 -16 -5 0 -10 -8 -10 -17 0 -10 -7 -31 -15 -47 -8 -15 -15 -33
-15 -38 0 -6 -7 -25 -15 -44 -8 -19 -22 -49 -30 -68 -8 -19 -15 -41 -15 -49 0
-9 -4 -19 -10 -22 -5 -3 -10 -14 -10 -23 0 -9 -7 -30 -15 -46 -8 -15 -15 -33
-15 -38 0 -5 -10 -30 -22 -56 -12 -26 -23 -52 -24 -59 -1 -7 -9 -26 -17 -42
-9 -17 -18 -44 -22 -61 -4 -16 -11 -32 -16 -35 -5 -4 -9 -14 -9 -23 0 -9 -7
-30 -15 -46 -8 -15 -15 -35 -15 -42 0 -8 -5 -14 -11 -14 -5 0 -8 -4 -4 -9 3
-6 -4 -26 -15 -46 -11 -19 -20 -40 -20 -46 0 -6 -6 -25 -14 -42 -7 -18 -24
-61 -36 -97 -32 -94 -44 -120 -53 -120 -4 0 -7 -6 -6 -12 2 -13 -3 -31 -27
-85 -8 -17 -14 -38 -14 -46 0 -9 -4 -18 -9 -22 -5 -3 -12 -19 -16 -36 -4 -17
-13 -42 -21 -57 -8 -15 -14 -35 -14 -44 0 -10 -4 -18 -10 -18 -5 0 -10 -9 -10
-19 0 -11 -4 -22 -9 -26 -5 -3 -12 -19 -16 -36 -4 -17 -13 -42 -21 -57 -8 -15
-14 -35 -14 -44 0 -9 -4 -19 -9 -23 -5 -3 -12 -19 -16 -36 -4 -17 -13 -42 -21
-57 -8 -15 -14 -35 -14 -44 0 -9 -4 -20 -10 -23 -5 -3 -10 -15 -10 -26 0 -10
-4 -19 -9 -19 -5 0 -12 -14 -16 -31 -4 -17 -13 -42 -21 -57 -8 -15 -14 -35
-14 -44 0 -9 -4 -20 -10 -23 -5 -3 -10 -13 -10 -22 0 -8 -7 -30 -15 -49 -8
-19 -22 -49 -30 -68 -8 -19 -15 -41 -15 -50 0 -9 -4 -16 -10 -16 -5 0 -10 -8
-10 -17 0 -10 -6 -30 -14 -45 -8 -15 -17 -40 -21 -57 -4 -17 -11 -33 -16 -36
-5 -4 -9 -13 -9 -22 0 -8 -6 -29 -14 -46 -7 -18 -21 -48 -30 -69 -9 -20 -16
-43 -16 -52 0 -9 -4 -16 -9 -16 -5 0 -12 -17 -16 -37 -4 -21 -10 -42 -14 -48
-4 -5 -16 -32 -26 -60 -10 -27 -21 -54 -25 -60 -4 -5 -11 -25 -15 -43 -3 -17
-11 -32 -16 -32 -5 0 -9 -9 -9 -21 0 -12 -6 -35 -14 -52 -8 -18 -26 -63 -41
-102 -15 -38 -33 -83 -40 -100 -7 -16 -23 -59 -36 -95 -13 -36 -29 -76 -36
-90 -7 -14 -13 -30 -13 -37 0 -6 -9 -28 -19 -50 -11 -21 -29 -67 -42 -103 -12
-36 -26 -69 -30 -75 -4 -5 -10 -27 -14 -47 -4 -21 -11 -38 -15 -38 -7 0 -21
-37 -24 -62 -1 -3 -4 -10 -8 -14 -13 -12 -9 -61 6 -73 9 -8 126 -10 411 -9
342 3 399 5 406 18 20 39 39 90 39 103 0 9 4 18 9 21 5 3 12 23 16 43 4 21 10
43 14 48 4 6 15 37 26 70 10 33 22 65 26 70 4 6 10 25 14 43 4 18 13 45 21 60
8 15 14 37 14 50 0 12 4 22 9 22 5 0 12 17 16 38 4 20 10 42 14 47 4 6 16 37
26 70 11 33 22 65 26 70 4 6 10 27 14 48 4 20 11 39 15 42 5 3 11 23 15 45 4
22 11 42 16 46 5 3 9 12 9 21 0 8 6 29 14 46 8 18 22 55 31 82 9 28 20 57 25
65 4 9 11 31 15 50 4 19 11 41 15 50 5 8 16 38 25 65 9 28 23 64 31 82 8 17
14 38 14 46 0 9 4 18 9 21 5 4 12 24 16 46 4 22 10 42 15 45 5 3 11 23 15 45
4 22 10 42 15 45 4 3 11 21 15 41 3 20 11 45 16 55 5 11 13 27 18 37 5 10 12
33 16 52 4 19 11 40 14 45 4 6 18 42 30 80 22 68 35 103 51 136 5 9 12 33 15
53 4 20 11 39 16 42 5 3 9 13 9 22 0 9 7 30 15 45 8 15 17 45 21 65 4 20 13
46 20 56 13 18 14 18 24 -8 5 -15 10 -34 10 -42 0 -8 4 -14 9 -14 5 0 12 -20
15 -45 4 -25 11 -45 17 -45 5 0 9 -11 9 -23 0 -13 3 -27 8 -31 4 -4 7 -11 8
-14 1 -11 14 -45 24 -63 5 -9 12 -33 15 -53 4 -20 11 -38 15 -41 5 -3 11 -23
15 -45 4 -22 11 -42 16 -46 5 -3 9 -12 9 -21 0 -8 6 -29 14 -46 8 -18 22 -54
31 -82 9 -27 20 -57 25 -65 4 -9 11 -30 15 -49 4 -18 13 -44 21 -59 8 -15 14
-35 14 -44 0 -9 4 -19 9 -22 5 -3 12 -22 16 -42 6 -36 10 -46 33 -91 7 -13 12
-28 12 -35 0 -7 6 -25 14 -40 8 -15 17 -42 21 -60 4 -18 11 -37 15 -43 4 -5
11 -24 15 -42 3 -18 15 -50 25 -71 10 -21 22 -52 26 -68 4 -16 10 -33 14 -39
5 -5 11 -27 15 -48 4 -20 11 -39 15 -42 5 -3 11 -23 15 -45 4 -22 10 -42 15
-45 5 -3 11 -23 15 -45 4 -22 11 -40 16 -40 5 0 9 -11 9 -25 0 -14 4 -25 9
-25 5 0 12 -18 16 -40 4 -22 10 -42 15 -45 5 -3 11 -23 15 -45 4 -22 10 -40
15 -40 4 0 10 -17 13 -38 4 -20 15 -55 26 -78 11 -22 23 -54 27 -70 4 -16 10
-33 14 -39 5 -5 11 -27 15 -48 4 -20 11 -40 16 -43 5 -3 9 -13 9 -22 0 -9 7
-30 15 -45 8 -15 17 -43 21 -62 3 -18 15 -43 25 -54 19 -21 27 -21 410 -21
423 0 419 0 419 54 0 14 -4 28 -10 31 -5 3 -10 13 -10 22 0 8 -6 29 -14 46 -7
18 -21 50 -30 72 -9 22 -21 47 -25 55 -5 9 -12 30 -16 49 -4 18 -13 44 -21 59
-8 15 -14 32 -14 38 0 5 -11 34 -25 62 -14 29 -25 58 -25 66 0 8 -4 17 -9 21
-5 3 -12 19 -16 36 -4 17 -13 42 -21 57 -8 15 -14 35 -14 44 0 9 -4 19 -9 23
-5 3 -12 19 -16 35 -4 16 -17 51 -31 77 -13 27 -24 56 -24 65 0 9 -4 19 -9 23
-5 3 -12 19 -16 36 -4 17 -13 42 -21 57 -8 15 -14 33 -14 40 0 7 -4 20 -9 30
-8 15 -22 47 -26 62 0 3 -11 26 -23 52 -12 26 -22 54 -22 62 0 8 -4 17 -9 21
-5 3 -12 19 -16 36 -4 17 -13 42 -21 57 -8 15 -14 33 -14 40 0 7 -4 20 -9 30
-5 9 -13 28 -19 42 -6 14 -20 46 -31 72 -12 26 -21 54 -21 62 0 8 -4 17 -9 21
-5 3 -13 20 -17 37 -3 18 -10 39 -15 48 -9 17 -22 52 -23 62 -1 3 -4 10 -8 14
-5 4 -8 16 -8 26 0 10 -4 18 -10 18 -5 0 -13 18 -16 40 -4 22 -10 40 -15 40
-5 0 -9 8 -9 18 0 9 -7 30 -15 46 -8 15 -15 33 -15 38 0 9 -5 22 -44 110 -9
20 -16 43 -16 52 0 9 -4 16 -9 16 -5 0 -12 18 -16 40 -4 22 -11 40 -16 40 -5
0 -9 7 -9 16 0 9 -6 30 -14 47 -12 28 -25 61 -31 77 -6 16 -19 49 -31 77 -8
17 -14 38 -14 47 0 9 -4 16 -10 16 -5 0 -10 7 -10 16 0 9 -6 30 -14 47 -12 28
-25 61 -31 77 -6 16 -19 49 -31 77 -8 17 -14 38 -14 47 0 9 -4 16 -9 16 -5 0
-12 18 -16 40 -4 22 -11 40 -16 40 -5 0 -9 7 -9 16 0 9 -6 30 -14 47 -18 41
-28 69 -32 84 -1 7 -9 26 -17 42 -9 17 -18 44 -22 61 -4 16 -11 32 -16 35 -5
4 -9 13 -9 21 0 8 -10 36 -22 62 -12 26 -21 50 -20 54 1 4 -7 24 -18 43 -11
20 -20 41 -20 48 0 7 -6 24 -14 39 -8 15 -17 40 -21 57 -4 17 -11 31 -16 31
-5 0 -9 10 -9 23 0 12 -11 44 -25 71 -14 27 -23 51 -21 54 3 2 -4 19 -15 38
-10 19 -19 40 -19 47 0 7 -6 24 -14 39 -8 15 -17 40 -21 57 -4 17 -11 33 -16
36 -5 4 -9 14 -9 23 0 9 -11 38 -24 65 -14 26 -27 61 -31 77 -4 16 -11 32 -16
35 -5 4 -9 14 -9 23 0 9 -10 37 -23 62 -19 39 -27 45 -58 48 -22 2 -40 -2 -47
-11z"/>
</g>
</svg>
