<?xml version="1.0" encoding="utf-8"?>
<!-- Generator: Adobe Illustrator 27.5.0, SVG Export Plug-In . SVG Version: 6.00 Build 0)  -->
<svg version="1.1" xmlns="http://www.w3.org/2000/svg" xmlns:xlink="http://www.w3.org/1999/xlink" x="0px" y="0px"
	 viewBox="0 0 500 500" style="enable-background:new 0 0 500 500;" xml:space="preserve">
<g id="Background_Complete">
	<g>
		<rect x="416.779" y="397.358" style="fill:#EBEBEB;" width="33.122" height="0.25"/>
		<rect x="322.527" y="400.071" style="fill:#EBEBEB;" width="8.693" height="0.25"/>
		<rect x="396.586" y="388.072" style="fill:#EBEBEB;" width="19.192" height="0.25"/>
		<rect x="52.459" y="389.752" style="fill:#EBEBEB;" width="43.193" height="0.25"/>
		<rect x="104.556" y="389.752" style="fill:#EBEBEB;" width="6.333" height="0.25"/>
		<rect x="131.471" y="393.974" style="fill:#EBEBEB;" width="93.676" height="0.25"/>
		<path style="fill:#EBEBEB;" d="M237.014,336.663H43.915c-3.147,0-5.708-2.56-5.708-5.708V59.523c0-3.147,2.561-5.708,5.708-5.708
			h193.099c3.146,0,5.707,2.561,5.707,5.708v271.432C242.721,334.103,240.16,336.663,237.014,336.663z M43.915,54.066
			c-3.01,0-5.458,2.448-5.458,5.458v271.432c0,3.01,2.448,5.458,5.458,5.458h193.099c3.009,0,5.457-2.448,5.457-5.458V59.523
			c0-3.009-2.448-5.458-5.457-5.458H43.915z"/>
		<path style="fill:#EBEBEB;" d="M453.31,336.663H260.212c-3.147,0-5.707-2.56-5.707-5.708V59.523c0-3.147,2.561-5.708,5.707-5.708
			H453.31c3.148,0,5.708,2.561,5.708,5.708v271.432C459.019,334.103,456.458,336.663,453.31,336.663z M260.212,54.066
			c-3.009,0-5.457,2.448-5.457,5.458v271.432c0,3.01,2.448,5.458,5.457,5.458H453.31c3.01,0,5.458-2.448,5.458-5.458V59.523
			c0-3.009-2.448-5.458-5.458-5.458H260.212z"/>
		<rect y="381.262" style="fill:#EBEBEB;" width="500" height="0.25"/>
	</g>
	<g>
		<rect x="416.779" y="397.358" style="fill:#EBEBEB;" width="33.122" height="0.25"/>
		<rect x="322.527" y="400.071" style="fill:#EBEBEB;" width="8.693" height="0.25"/>
		<rect x="396.586" y="388.072" style="fill:#EBEBEB;" width="19.192" height="0.25"/>
		<rect x="52.459" y="389.752" style="fill:#EBEBEB;" width="43.193" height="0.25"/>
		<rect x="104.556" y="389.752" style="fill:#EBEBEB;" width="6.333" height="0.25"/>
		<rect x="131.471" y="393.974" style="fill:#EBEBEB;" width="93.676" height="0.25"/>
		<path style="fill:#EBEBEB;" d="M237.014,336.663H43.915c-3.147,0-5.708-2.56-5.708-5.708V59.523c0-3.147,2.561-5.708,5.708-5.708
			h193.099c3.146,0,5.707,2.561,5.707,5.708v271.432C242.721,334.103,240.16,336.663,237.014,336.663z M43.915,54.066
			c-3.01,0-5.458,2.448-5.458,5.458v271.432c0,3.01,2.448,5.458,5.458,5.458h193.099c3.009,0,5.457-2.448,5.457-5.458V59.523
			c0-3.009-2.448-5.458-5.457-5.458H43.915z"/>
		<path style="fill:#EBEBEB;" d="M453.31,336.663H260.212c-3.147,0-5.707-2.56-5.707-5.708V59.523c0-3.147,2.561-5.708,5.707-5.708
			H453.31c3.148,0,5.708,2.561,5.708,5.708v271.432C459.019,334.103,456.458,336.663,453.31,336.663z M260.212,54.066
			c-3.009,0-5.457,2.448-5.457,5.458v271.432c0,3.01,2.448,5.458,5.457,5.458H453.31c3.01,0,5.458-2.448,5.458-5.458V59.523
			c0-3.009-2.448-5.458-5.458-5.458H260.212z"/>
		<rect y="381.262" style="fill:#EBEBEB;" width="500" height="0.25"/>
	</g>
	<g>
		
			<ellipse transform="matrix(0.7071 -0.7071 0.7071 0.7071 53.026 328.9035)" style="fill:#F0F0F0;" cx="423.535" cy="100.444" rx="22.91" ry="22.91"/>
		<g>
			<g>
				<path style="fill:#FFFFFF;" d="M423.6,123.864c-12.916,0-23.425-10.509-23.425-23.425c0-12.917,10.509-23.425,23.425-23.425
					v1.031c-12.348,0-22.394,10.046-22.394,22.395c0,12.348,10.046,22.394,22.394,22.394V123.864z"/>
			</g>
			<g>
				<g>
					<g>
						<path style="fill:#FFFFFF;" d="M423.6,123.864v-1.031c12.348,0,22.395-10.046,22.395-22.394
							c0-12.348-10.047-22.395-22.395-22.395v-1.031c12.917,0,23.425,10.509,23.425,23.425
							C447.025,113.355,436.517,123.864,423.6,123.864z"/>
					</g>
					<g>
						<g>
							<path style="fill:#FFFFFF;" d="M435.57,100.444h-1.031c0-7.593-3.853-17.751-11.217-22.476l0.556-0.868
								C431.554,82.025,435.57,92.572,435.57,100.444z"/>
						</g>
						<g>
							<path style="fill:#FFFFFF;" d="M423.878,123.088l-0.556-0.868c7.365-4.725,11.217-14.883,11.217-22.476h1.031
								C435.57,107.617,431.554,118.164,423.878,123.088z"/>
						</g>
					</g>
					<g>
						<g>
							<path style="fill:#FFFFFF;" d="M412.661,100.439h-1.031c0-7.872,4.016-18.418,11.691-23.344l0.558,0.868
								C416.514,82.688,412.661,92.847,412.661,100.439z"/>
						</g>
						<g>
							<path style="fill:#FFFFFF;" d="M423.321,123.083c-7.675-4.926-11.691-15.472-11.691-23.343h1.031
								c0,7.592,3.853,17.75,11.217,22.476L423.321,123.083z"/>
						</g>
					</g>
					<g>
						<rect x="423.084" y="77.529" style="fill:#FFFFFF;" width="1.031" height="45.82"/>
					</g>
				</g>
			</g>
			<g>
				<g>
					<rect x="404.208" y="87.72" style="fill:#FFFFFF;" width="38.784" height="1.031"/>
				</g>
				<g>
					<rect x="400.701" y="100.313" style="fill:#FFFFFF;" width="45.799" height="1.031"/>
				</g>
				<g>
					<rect x="404.721" y="112.897" style="fill:#FFFFFF;" width="37.759" height="1.031"/>
				</g>
			</g>
		</g>
	</g>
	<g>
		<g>
			<g>
				<g>
					<path style="fill:#F0F0F0;" d="M240.29,380.863L240.29,380.863c-1.94,0-3.512-1.573-3.512-3.512v-70.516h7.025v70.516
						C243.802,379.291,242.23,380.863,240.29,380.863z"/>
				</g>
				<g>
					<path style="fill:#F0F0F0;" d="M429.616,297.648h-16.152v-1.436c0-2.817,2.364-5.057,5.178-4.905l6.327,0.342
						c2.607,0.141,4.648,2.295,4.648,4.905V297.648z"/>
					<g>
						<path style="fill:#E0E0E0;" d="M402.023,264.262c-0.061-1.272-1.111-2.272-2.384-2.272h-16.322c-1.274,0-2.323,1-2.384,2.272
							l3.874,34.013h24.361L402.023,264.262z"/>
						<path style="fill:#E0E0E0;" d="M446.351,211.967h-6.081l-6.835,64.24h6.081c1.008,0,1.912-0.817,2.019-1.825l6.447-60.591
							C448.088,212.784,447.358,211.967,446.351,211.967z"/>
						<path style="fill:#F5F5F5;" d="M436.944,276.207h-91.146c-1.008,0-1.738-0.817-1.63-1.825l6.447-60.591
							c0.107-1.008,1.011-1.825,2.019-1.825h91.146c1.008,0,1.738,0.817,1.631,1.825l-6.447,60.591
							C438.855,275.39,437.952,276.207,436.944,276.207z"/>
						<path style="fill:#EBEBEB;" d="M435.241,270.274H349.29c-0.879,0-1.516-0.713-1.423-1.592l5.625-52.863
							c0.094-0.879,0.882-1.592,1.762-1.592h85.951c0.879,0,1.516,0.713,1.423,1.592l-5.625,52.863
							C436.909,269.561,436.121,270.274,435.241,270.274z"/>
						<path style="fill:#E0E0E0;" d="M410.445,295.634h-30.686c-0.53,0-0.959,0.429-0.959,0.959v0.724
							c0,0.53,0.429,0.959,0.959,0.959h30.686c0.53,0,0.959-0.429,0.959-0.959v-0.724
							C411.404,296.063,410.974,295.634,410.445,295.634z"/>
						<g>
							<path style="fill:#E6E6E6;" d="M348.975,270.274l25.543-22.201c2.424-2.107,5.528-2.107,6.932,0l14.801,22.201H348.975z"/>
							<path style="fill:#F5F5F5;" d="M374.518,248.073l-25.543,22.201h24.49c-2.443-1.237-8.194-1.894-7.51-4.722
								c0.89-3.679,12.279-2.391,13.124-5.887c0.846-3.495-7.277-2.391-6.254-6.622c0.538-2.223,2.639-4.631,4.521-6.434
								C376.39,246.815,375.408,247.299,374.518,248.073z"/>
						</g>
						<g>
							<path style="fill:#E6E6E6;" d="M386.557,270.274l11.322-11.2c1.074-1.063,2.45-1.063,3.073,0l6.561,11.2H386.557z"/>
							<path style="fill:#F5F5F5;" d="M397.879,259.073l-11.322,11.2h10.855c-1.083-0.624-3.632-0.956-3.329-2.382
								c0.395-1.856,5.443-1.206,5.818-2.97c0.375-1.763-3.226-1.206-2.772-3.341c0.238-1.122,1.17-2.336,2.004-3.246
								C398.709,258.439,398.274,258.683,397.879,259.073z"/>
						</g>
						<g>
							<path style="fill:#F0F0F0;" d="M405.931,270.274l15.863-11.2c1.505-1.063,3.433-1.063,4.305,0l9.192,11.2H405.931z"/>
							<path style="fill:#FAFAFA;" d="M421.794,259.073l-15.863,11.2h15.209c-1.517-0.624-5.088-0.956-4.664-2.382
								c0.553-1.856,7.625-1.206,8.151-2.97c0.525-1.763-4.519-1.206-3.884-3.341c0.334-1.122,1.639-2.336,2.807-3.246
								C422.957,258.439,422.347,258.683,421.794,259.073z"/>
						</g>
						<g>
							<path style="fill:#F0F0F0;" d="M425.813,236.731c-1.198,5.638-6.74,10.208-12.378,10.208c-5.638,0-9.236-4.57-8.038-10.208
								c1.198-5.638,6.74-10.208,12.378-10.208S427.011,231.093,425.813,236.731z"/>
							<path style="opacity:0.8;fill:#FAFAFA;" d="M425.813,236.731c-1.198,5.638-6.74,10.208-12.378,10.208
								c-5.638,0-9.236-4.57-8.038-10.208c1.198-5.638,6.74-10.208,12.378-10.208S427.011,231.093,425.813,236.731z"/>
						</g>
					</g>
					<g>
						<g>
							<path style="fill:#F5F5F5;" d="M338.766,295.499h-2.273c-0.24,0-0.434-0.194-0.434-0.434v-2.404
								c0-0.24,0.194-0.434,0.434-0.434h1.632c0.197,0,0.369,0.132,0.419,0.322l0.641,2.404
								C339.259,295.229,339.051,295.499,338.766,295.499z"/>
							<path style="fill:#F5F5F5;" d="M341.907,295.499h-2.273c-0.24,0-0.434-0.194-0.434-0.434v-2.404
								c0-0.24,0.194-0.434,0.434-0.434h1.632c0.197,0,0.369,0.132,0.419,0.322l0.641,2.404
								C342.4,295.229,342.192,295.499,341.907,295.499z"/>
							<path style="fill:#F5F5F5;" d="M345.048,295.499h-2.273c-0.24,0-0.434-0.194-0.434-0.434v-2.404
								c0-0.24,0.194-0.434,0.434-0.434h1.632c0.197,0,0.369,0.132,0.419,0.322l0.641,2.404
								C345.541,295.229,345.333,295.499,345.048,295.499z"/>
							<path style="fill:#F5F5F5;" d="M348.189,295.499h-2.273c-0.24,0-0.434-0.194-0.434-0.434v-2.404
								c0-0.24,0.194-0.434,0.434-0.434h1.632c0.197,0,0.369,0.132,0.419,0.322l0.641,2.404
								C348.682,295.229,348.474,295.499,348.189,295.499z"/>
							<path style="fill:#F5F5F5;" d="M351.331,295.499h-2.273c-0.24,0-0.434-0.194-0.434-0.434v-2.404
								c0-0.24,0.194-0.434,0.434-0.434h1.632c0.197,0,0.369,0.132,0.419,0.322l0.641,2.404
								C351.823,295.229,351.616,295.499,351.331,295.499z"/>
							<path style="fill:#F5F5F5;" d="M354.472,295.499h-2.273c-0.24,0-0.434-0.194-0.434-0.434v-2.404
								c0-0.24,0.194-0.434,0.434-0.434h1.632c0.197,0,0.369,0.132,0.419,0.322l0.641,2.404
								C354.965,295.229,354.757,295.499,354.472,295.499z"/>
							<path style="fill:#F5F5F5;" d="M357.613,295.499h-2.273c-0.24,0-0.434-0.194-0.434-0.434v-2.404
								c0-0.24,0.194-0.434,0.434-0.434h1.632c0.197,0,0.369,0.132,0.419,0.322l0.641,2.404
								C358.106,295.229,357.898,295.499,357.613,295.499z"/>
							<path style="fill:#F5F5F5;" d="M360.754,295.499h-2.273c-0.24,0-0.434-0.194-0.434-0.434v-2.404
								c0-0.24,0.194-0.434,0.434-0.434h1.632c0.197,0,0.369,0.132,0.419,0.322l0.641,2.404
								C361.247,295.229,361.039,295.499,360.754,295.499z"/>
							<path style="fill:#F5F5F5;" d="M363.896,295.499h-2.273c-0.24,0-0.434-0.194-0.434-0.434v-2.404
								c0-0.24,0.194-0.434,0.434-0.434h1.632c0.197,0,0.369,0.132,0.419,0.322l0.641,2.404
								C364.388,295.229,364.181,295.499,363.896,295.499z"/>
							<path style="fill:#F5F5F5;" d="M367.037,295.499h-2.273c-0.24,0-0.434-0.194-0.434-0.434v-2.404
								c0-0.24,0.194-0.434,0.434-0.434h1.632c0.197,0,0.369,0.132,0.419,0.322l0.641,2.404
								C367.53,295.229,367.322,295.499,367.037,295.499z"/>
							<path style="fill:#F5F5F5;" d="M370.178,295.499h-2.273c-0.24,0-0.434-0.194-0.434-0.434v-2.404
								c0-0.24,0.194-0.434,0.434-0.434h1.632c0.197,0,0.369,0.132,0.419,0.322l0.641,2.404
								C370.671,295.229,370.463,295.499,370.178,295.499z"/>
							<path style="fill:#F5F5F5;" d="M373.319,295.499h-2.273c-0.24,0-0.434-0.194-0.434-0.434v-2.404
								c0-0.24,0.194-0.434,0.434-0.434h1.632c0.197,0,0.369,0.132,0.419,0.322l0.641,2.404
								C373.812,295.229,373.604,295.499,373.319,295.499z"/>
							<path style="fill:#F5F5F5;" d="M376.46,295.499h-2.273c-0.24,0-0.434-0.194-0.434-0.434v-2.404
								c0-0.24,0.194-0.434,0.434-0.434h1.632c0.197,0,0.369,0.132,0.419,0.322l0.641,2.404
								C376.953,295.229,376.745,295.499,376.46,295.499z"/>
							<path style="fill:#F5F5F5;" d="M379.601,295.499h-2.273c-0.24,0-0.434-0.194-0.434-0.434v-2.404
								c0-0.24,0.194-0.434,0.434-0.434h1.632c0.197,0,0.369,0.132,0.419,0.322l0.641,2.404
								C380.094,295.229,379.887,295.499,379.601,295.499z"/>
							<path style="fill:#F5F5F5;" d="M382.743,295.499h-2.273c-0.24,0-0.434-0.194-0.434-0.434v-2.404
								c0-0.24,0.194-0.434,0.434-0.434h1.632c0.197,0,0.369,0.132,0.419,0.322l0.641,2.404
								C383.235,295.229,383.028,295.499,382.743,295.499z"/>
						</g>
						<rect x="334.206" y="293.863" style="fill:#EBEBEB;" width="50.823" height="3.785"/>
					</g>
					<rect x="387.816" y="297.648" style="fill:#E6E6E6;" width="60.893" height="9.186"/>
					<g>
						<path style="fill:#E6E6E6;" d="M278.271,380.863L278.271,380.863c-1.94,0-3.513-1.573-3.513-3.512v-70.516h7.025v70.516
							C281.783,379.291,280.211,380.863,278.271,380.863z"/>
					</g>
					<path style="fill:#E6E6E6;" d="M441.135,380.863L441.135,380.863c-1.94,0-3.512-1.573-3.512-3.512v-70.516h7.025v70.516
						C444.648,379.291,443.075,380.863,441.135,380.863z"/>
					<rect x="232.716" y="297.648" style="fill:#F0F0F0;" width="172.469" height="9.186"/>
					<path style="fill:#EBEBEB;" d="M399.487,380.863h-90.772c-7.719,0-13.977-6.258-13.977-13.977l0,0
						c0-7.719,6.258-13.977,13.977-13.977h90.772c7.719,0,13.977,6.258,13.977,13.977l0,0
						C413.464,374.606,407.206,380.863,399.487,380.863z"/>
					<path style="fill:#F0F0F0;" d="M397.612,380.863L397.612,380.863c-1.94,0-3.513-1.573-3.513-3.512v-70.516h7.025v70.516
						C401.124,379.291,399.551,380.863,397.612,380.863z"/>
				</g>
			</g>
			<g>
				<path style="fill:#EBEBEB;" d="M325.531,381.12c-1.02,0.26-2.09,0.39-3.2,0.39h-55.19c-7.54,0-14.18-6.11-14.84-13.65
					l-10.01-114.38c-0.66-7.54,4.92-13.66,12.46-13.66h55.18c1.11,0,2.21,0.13,3.27,0.39c6.11,1.45,11.02,6.84,11.57,13.27
					l10.01,114.38C335.341,374.29,331.371,379.67,325.531,381.12z"/>
			</g>
			<g>
				<path style="fill:#F5F5F5;" d="M325.531,381.12c-6.11-1.45-11.02-6.83-11.58-13.26l-10-114.38c-0.56-6.43,3.4-11.82,9.25-13.27
					c6.11,1.45,11.02,6.84,11.57,13.27l10.01,114.38C335.341,374.29,331.371,379.67,325.531,381.12z"/>
			</g>
		</g>
		<g>
			<g>
				<g>
					<rect x="140.636" y="95.015" style="fill:#FAFAFA;" width="86.378" height="7.309"/>
					<rect x="144.636" y="322.761" style="fill:#FAFAFA;" width="86.378" height="7.308"/>
					<g>
						<path style="fill:#F0F0F0;" d="M137.791,102.323v148.722c1.73-1.15,3.62-2.22,5.6-3.18c0.41-0.2,0.82-0.39,1.23-0.58v0.23
							c0,0.15,0.01,0.31,0.02,0.46c0.01,0.15,0.02,0.29,0.04,0.43c0,0.03,0,0.05,0.01,0.08c0.02,0.14,0.04,0.28,0.07,0.41
							c0.03,0.14,0.06,0.28,0.1,0.42V102.323H137.791z M231.371,336.295V87.873h-93.64v248.422 M224.231,95.013v234.152h-79.37
							V95.013H224.231z M137.791,102.323v148.722c1.73-1.15,3.62-2.22,5.6-3.18c0.41-0.2,0.82-0.39,1.23-0.58v0.23
							c0,0.15,0.01,0.31,0.02,0.46c0.01,0.15,0.02,0.29,0.04,0.43c0,0.03,0,0.05,0.01,0.08c0.02,0.14,0.04,0.28,0.07,0.41
							c0.03,0.14,0.06,0.28,0.1,0.42V102.323H137.791z"/>
					</g>
				</g>
				<g>
					<rect x="54.976" y="95.015" style="fill:#FAFAFA;" width="86.378" height="7.309"/>
					<rect x="51.976" y="322.761" style="fill:#FAFAFA;" width="86.378" height="7.308"/>
					<g>
						<path style="fill:#EBEBEB;" d="M51.291,87.873v248.422h93.64V87.873H51.291z M59.741,330.115V95.963l77.99-0.95h0.06v234.152
							h-0.06l-30.18,0.37l-0.85,0.01l-43.67,0.53L59.741,330.115z"/>
					</g>
				</g>
			</g>
		</g>
	</g>
</g>
<g id="Background_Simple" style="display:none;">
	<g style="display:inline;">
		<g>
			<path style="fill:#831616;" d="M130.871,89.031c-25.749,3.08-47.147,21.026-53.823,45.142
				c-3.637,13.138-32.589,156.296,78.271,211.531c121.471,60.522,224.232-8.433,245.238-37.397
				c19.365-26.702,24.467-47.683,26.087-69.885c1.505-20.629-0.831-47.954-18.604-65.19c-15.37-14.905-37.141-20.764-57.432-22.417
				c-30.711-2.502-60.964,3.114-86.7,16.094c-5.626,2.838-12.32,6.032-18.58,2.835c-5.5-2.809-7.89-9.202-10.339-14.74
				C218.64,118.046,169.717,84.384,130.871,89.031z"/>
		</g>
		<g style="opacity:0.9;">
			<path style="fill:#FFFFFF;" d="M130.871,89.031c-25.749,3.08-47.147,21.026-53.823,45.142
				c-3.637,13.138-32.589,156.296,78.271,211.531c121.471,60.522,224.232-8.433,245.238-37.397
				c19.365-26.702,24.467-47.683,26.087-69.885c1.505-20.629-0.831-47.954-18.604-65.19c-15.37-14.905-37.141-20.764-57.432-22.417
				c-30.711-2.502-60.964,3.114-86.7,16.094c-5.626,2.838-12.32,6.032-18.58,2.835c-5.5-2.809-7.89-9.202-10.339-14.74
				C218.64,118.046,169.717,84.384,130.871,89.031z"/>
		</g>
	</g>
</g>
<g id="Shadow">
	<ellipse id="_x3C_Path_x3E__1_" style="fill:#F5F5F5;" cx="245.178" cy="412.391" rx="193.889" ry="11.323"/>
</g>
<g id="Web_Page">
	<g>
		<g>
			<g>
				<rect x="98.297" y="73.797" style="fill:#831616;" width="301.05" height="204.446"/>
				<rect x="98.297" y="73.797" style="opacity:0.5;fill:#FFFFFF;" width="301.05" height="204.446"/>
			</g>
			<path style="fill:#831616;" d="M98.297,73.797v14.094h43.577v-5.413c0-2.689,2.18-4.869,4.869-4.869h40.31
				c2.689,0,4.869,2.18,4.869,4.869v5.413h207.425V73.797H98.297z"/>
			<path style="opacity:0.7;fill:#FFFFFF;" d="M110.858,80.844c0,1.786-1.448,3.235-3.235,3.235s-3.235-1.448-3.235-3.235
				c0-1.787,1.448-3.235,3.235-3.235S110.858,79.058,110.858,80.844z"/>
			<circle style="opacity:0.7;fill:#FFFFFF;" cx="117.328" cy="80.844" r="3.235"/>
			<path style="opacity:0.7;fill:#FFFFFF;" d="M130.267,80.844c0,1.786-1.448,3.235-3.235,3.235c-1.786,0-3.235-1.448-3.235-3.235
				c0-1.787,1.448-3.235,3.235-3.235C128.819,77.609,130.267,79.058,130.267,80.844z"/>
			<path style="opacity:0.7;fill:#FFFFFF;" d="M154.608,84.079c0,1.786-1.448,3.235-3.235,3.235c-1.786,0-3.235-1.448-3.235-3.235
				c0-1.787,1.448-3.235,3.235-3.235C153.16,80.844,154.608,82.292,154.608,84.079z"/>
		</g>
		<rect x="98.297" y="115.449" style="opacity:0.2;fill:#FFFFFF;" width="301.05" height="162.795"/>
		<g>
			<g>
				<path style="fill:#831616;" d="M191.511,67.808c-4.802,0-27.979,0-32.781,0c-0.71,0-0.807,1.103-0.097,1.103
					c4.802,0,27.979,0,32.782,0C192.124,68.91,192.221,67.808,191.511,67.808L191.511,67.808z"/>
			</g>
			<g>
				<path style="fill:#831616;" d="M153.452,67.808c-1.38,0-2.76,0-4.139,0c-0.709,0-0.807,1.103-0.096,1.103c1.38,0,2.76,0,4.139,0
					C154.065,68.91,154.162,67.808,153.452,67.808L153.452,67.808z"/>
			</g>
		</g>
		<path style="fill:#FFFFFF;" d="M351.443,108.188H154.804c-3.355,0-6.075-2.72-6.075-6.075l0,0c0-3.355,2.72-6.075,6.075-6.075
			h196.639c3.355,0,6.075,2.72,6.075,6.075l0,0C357.519,105.468,354.799,108.188,351.443,108.188z"/>
		<path style="fill:#263238;" d="M142.445,134.665h-31.773c-3.47,0-6.284-2.813-6.284-6.284l0,0c0-3.471,2.814-6.284,6.284-6.284
			h31.773c3.471,0,6.284,2.813,6.284,6.284l0,0C148.729,131.851,145.916,134.665,142.445,134.665z"/>
		<path style="fill:#FFFFFF;" d="M346.68,143.343H171.712c-5.867,0-10.623-4.756-10.623-10.623l0,0
			c0-5.867,4.756-10.623,10.623-10.623H346.68c5.867,0,10.623,4.756,10.623,10.623l0,0
			C357.303,138.587,352.547,143.343,346.68,143.343z"/>
		<g>
			<rect x="345.231" y="168.512" style="fill:#FFFFFF;" width="29.108" height="29.108"/>
			<rect x="309.649" y="168.512" style="fill:#FFFFFF;" width="29.108" height="29.108"/>
			<rect x="160.592" y="189.766" style="fill:#831616;" width="90.818" height="7.908"/>
			<rect x="160.592" y="189.766" style="opacity:0.1;" width="90.818" height="7.908"/>
			<rect x="305.288" y="211.245" style="fill:#831616;" width="72.616" height="7.908"/>
			<rect x="305.288" y="211.245" style="opacity:0.1;" width="72.616" height="7.908"/>
			<rect x="160.592" y="205.235" style="fill:#263238;" width="118.24" height="2.481"/>
			<rect x="160.592" y="82.839" style="fill:#263238;" width="24.303" height="2.481"/>
			<rect x="160.592" y="215.312" style="fill:#263238;" width="99.646" height="2.481"/>
			<rect x="160.592" y="238.504" style="fill:#831616;" width="90.818" height="7.908"/>
			<rect x="160.592" y="238.504" style="opacity:0.1;" width="90.818" height="7.908"/>
			<rect x="160.592" y="253.973" style="fill:#263238;" width="118.24" height="2.481"/>
			<rect x="160.592" y="264.05" style="fill:#263238;" width="99.646" height="2.481"/>
			<rect x="305.288" y="226.6" style="fill:#263238;" width="72.616" height="2.481"/>
			<rect x="305.288" y="236.678" style="fill:#263238;" width="59.214" height="2.481"/>
			
				<rect x="298.874" y="160.974" style="fill:none;stroke:#831616;stroke-width:1.5;stroke-miterlimit:10;" width="85.763" height="105.706"/>
		</g>
		<g>
			<g>
				<path style="fill:#831616;" d="M339.642,136.208c-1.474,0-2.859-0.574-3.901-1.616c-1.042-1.042-1.616-2.428-1.616-3.901
					s0.574-2.859,1.616-3.901c1.042-1.042,2.427-1.616,3.901-1.616c1.474,0,2.859,0.574,3.901,1.616l0,0l0,0
					c1.042,1.042,1.616,2.427,1.616,3.901s-0.574,2.859-1.616,3.901C342.502,135.634,341.116,136.208,339.642,136.208z
					 M339.642,126.119c-1.221,0-2.369,0.476-3.233,1.339c-0.864,0.864-1.339,2.012-1.339,3.233s0.476,2.37,1.339,3.233
					c0.864,0.864,2.012,1.339,3.233,1.339c1.221,0,2.37-0.476,3.233-1.339c0.864-0.864,1.339-2.012,1.339-3.233
					s-0.476-2.37-1.339-3.233l0,0C342.012,126.594,340.864,126.119,339.642,126.119z"/>
			</g>
			<g>
				
					<rect x="346.326" y="134.661" transform="matrix(0.7071 -0.7071 0.7071 0.7071 4.1024 285.5981)" style="fill:#831616;" width="0.944" height="6.371"/>
			</g>
			<g>
				
					<rect x="343.737" y="134.089" transform="matrix(0.7071 -0.7071 0.7071 0.7071 5.1749 283.0087)" style="fill:#831616;" width="0.944" height="2.337"/>
			</g>
		</g>
		<g>
			<g>
				<path style="fill:#831616;" d="M163.839,156.378c-0.692,0-1.343-0.27-1.832-0.759c-1.01-1.01-1.01-2.654,0-3.664
					c0.489-0.49,1.14-0.759,1.832-0.759c0.692,0,1.343,0.27,1.832,0.759l0,0c1.01,1.01,1.01,2.654,0,3.664
					C165.181,156.109,164.531,156.378,163.839,156.378z M163.839,151.751c-0.544,0-1.055,0.212-1.44,0.596
					c-0.794,0.794-0.794,2.086,0,2.879c0.384,0.385,0.896,0.596,1.44,0.596c0.544,0,1.055-0.212,1.44-0.596
					c0.794-0.794,0.794-2.085,0-2.879l0,0C164.894,151.963,164.382,151.751,163.839,151.751z"/>
			</g>
			<g>
				
					<rect x="166.843" y="155.608" transform="matrix(0.7071 -0.7071 0.7071 0.7071 -62.1164 164.1653)" style="fill:#831616;" width="0.555" height="2.922"/>
			</g>
			<g>
				
					<rect x="165.748" y="155.345" transform="matrix(0.7072 -0.707 0.707 0.7072 -61.6251 162.9588)" style="fill:#831616;" width="0.37" height="1.072"/>
			</g>
		</g>
		<g>
			<path style="fill:#263238;" d="M171.815,134.16l0.174-0.287c0.363,0.378,1.035,0.664,1.745,0.664
				c1.057,0,1.525-0.461,1.525-1.035c0-1.586-3.3-0.634-3.3-2.583c0-0.748,0.574-1.405,1.873-1.405c0.581,0,1.185,0.181,1.593,0.476
				l-0.144,0.31c-0.438-0.302-0.974-0.446-1.45-0.446c-1.027,0-1.488,0.476-1.488,1.057c0,1.586,3.3,0.65,3.3,2.568
				c0,0.747-0.597,1.397-1.903,1.397C172.955,134.878,172.2,134.583,171.815,134.16z"/>
			<path style="fill:#263238;" d="M180.162,132.96h-3.391c0.038,0.937,0.725,1.571,1.669,1.571c0.499,0,0.959-0.181,1.261-0.551
				l0.219,0.249c-0.347,0.423-0.891,0.642-1.488,0.642c-1.193,0-2.031-0.831-2.031-2.001c0-1.17,0.808-2.001,1.888-2.001
				c1.08,0,1.88,0.816,1.88,1.986C180.169,132.884,180.162,132.922,180.162,132.96z M176.779,132.665h3.021
				c-0.053-0.854-0.672-1.465-1.51-1.465C177.451,131.2,176.839,131.804,176.779,132.665z"/>
			<path style="fill:#263238;" d="M184.076,132.341v2.499h-0.363v-0.702c-0.249,0.453-0.733,0.732-1.42,0.732
				c-0.884,0-1.42-0.453-1.42-1.125c0-0.596,0.377-1.102,1.473-1.102h1.352v-0.317c0-0.733-0.4-1.125-1.171-1.125
				c-0.543,0-1.035,0.204-1.359,0.498l-0.189-0.272c0.393-0.347,0.967-0.559,1.578-0.559
				C183.532,130.868,184.076,131.366,184.076,132.341z M183.699,133.677v-0.74h-1.344c-0.815,0-1.103,0.34-1.103,0.793
				c0,0.514,0.4,0.831,1.095,0.831C183.011,134.561,183.472,134.244,183.699,133.677z"/>
			<path style="fill:#263238;" d="M187.499,130.868v0.37c-0.03,0-0.061-0.008-0.091-0.008c-0.876,0-1.397,0.581-1.397,1.556v2.054
				h-0.378v-3.942h0.363v0.861C186.238,131.185,186.759,130.868,187.499,130.868z"/>
			<path style="fill:#263238;" d="M188.075,132.869c0-1.178,0.838-2.001,1.993-2.001c0.627,0,1.17,0.242,1.495,0.725l-0.279,0.204
				c-0.287-0.4-0.725-0.589-1.216-0.589c-0.929,0-1.609,0.665-1.609,1.661c0,0.997,0.68,1.661,1.609,1.661
				c0.491,0,0.929-0.189,1.216-0.589l0.279,0.204c-0.325,0.476-0.868,0.725-1.495,0.725
				C188.913,134.87,188.075,134.04,188.075,132.869z"/>
			<path style="fill:#263238;" d="M196.157,132.537v2.303h-0.378v-2.273c0-0.891-0.476-1.359-1.276-1.359
				c-0.929,0-1.495,0.597-1.495,1.533v2.099h-0.378v-5.603h0.378v2.484c0.272-0.536,0.816-0.854,1.548-0.854
				C195.516,130.868,196.157,131.434,196.157,132.537z"/>
		</g>
		<g>
			<path style="fill:#263238;" d="M161.018,102.107v2.303h-0.378v-2.273c0-0.891-0.476-1.36-1.276-1.36
				c-0.929,0-1.495,0.597-1.495,1.533v2.099h-0.377v-5.603h0.377v2.484c0.272-0.536,0.815-0.854,1.548-0.854
				C160.376,100.439,161.018,101.005,161.018,102.107z"/>
			<path style="fill:#263238;" d="M164.532,104.161c-0.196,0.189-0.514,0.279-0.808,0.279c-0.695,0-1.072-0.408-1.072-1.072v-2.575
				h-0.725v-0.325h0.725v-0.861h0.378v0.861h1.254v0.325h-1.254v2.537c0,0.506,0.249,0.785,0.733,0.785
				c0.234,0,0.453-0.076,0.611-0.219L164.532,104.161z"/>
			<path style="fill:#263238;" d="M167.434,104.161c-0.196,0.189-0.513,0.279-0.808,0.279c-0.695,0-1.072-0.408-1.072-1.072v-2.575
				h-0.725v-0.325h0.725v-0.861h0.378v0.861h1.254v0.325h-1.254v2.537c0,0.506,0.249,0.785,0.733,0.785
				c0.234,0,0.453-0.076,0.611-0.219L167.434,104.161z"/>
			<path style="fill:#263238;" d="M172.412,102.44c0,1.186-0.838,2.001-1.948,2.001c-0.695,0-1.284-0.34-1.601-0.929v2.364h-0.378
				v-5.407h0.363v0.929c0.31-0.604,0.906-0.959,1.616-0.959C171.574,100.439,172.412,101.262,172.412,102.44z M172.035,102.44
				c0-0.989-0.687-1.661-1.594-1.661c-0.906,0-1.586,0.672-1.586,1.661c0,0.989,0.68,1.661,1.586,1.661
				C171.347,104.101,172.035,103.429,172.035,102.44z"/>
			<path style="fill:#263238;" d="M173.004,103.935l0.174-0.302c0.302,0.257,0.838,0.476,1.42,0.476c0.831,0,1.163-0.294,1.163-0.74
				c0-1.148-2.613-0.302-2.613-1.85c0-0.597,0.498-1.08,1.495-1.08c0.499,0,1.042,0.151,1.352,0.385l-0.174,0.302
				c-0.332-0.242-0.763-0.355-1.186-0.355c-0.771,0-1.11,0.317-1.11,0.74c0,1.186,2.613,0.347,2.613,1.85
				c0,0.642-0.551,1.08-1.556,1.08C173.933,104.441,173.313,104.222,173.004,103.935z"/>
			<path style="fill:#263238;" d="M176.835,100.756c0-0.181,0.143-0.317,0.317-0.317c0.174,0,0.317,0.136,0.317,0.317
				c0,0.181-0.144,0.325-0.317,0.325C176.978,101.081,176.835,100.937,176.835,100.756z M176.835,104.116
				c0-0.181,0.143-0.317,0.317-0.317c0.174,0,0.317,0.136,0.317,0.317c0,0.181-0.144,0.325-0.317,0.325
				C176.978,104.441,176.835,104.298,176.835,104.116z"/>
			<path style="fill:#263238;" d="M180.551,98.052h0.347l-2.492,7.114h-0.347L180.551,98.052z"/>
			<path style="fill:#263238;" d="M182.493,98.052h0.347l-2.492,7.114h-0.347L182.493,98.052z"/>
		</g>
		<g>
			<path style="opacity:0.7;fill:#831616;" d="M185.292,153.966c0,1.787-1.448,3.235-3.235,3.235c-1.786,0-3.235-1.448-3.235-3.235
				c0-1.787,1.448-3.235,3.235-3.235C183.844,150.732,185.292,152.18,185.292,153.966z"/>
			<path style="opacity:0.7;fill:#831616;" d="M201.822,153.966c0,1.787-1.448,3.235-3.235,3.235c-1.786,0-3.235-1.448-3.235-3.235
				c0-1.787,1.448-3.235,3.235-3.235C200.374,150.732,201.822,152.18,201.822,153.966z"/>
			<path style="opacity:0.7;fill:#831616;" d="M218.352,153.966c0,1.787-1.448,3.235-3.235,3.235c-1.786,0-3.235-1.448-3.235-3.235
				c0-1.787,1.448-3.235,3.235-3.235C216.904,150.732,218.352,152.18,218.352,153.966z"/>
			<path style="opacity:0.7;fill:#831616;" d="M234.881,153.966c0,1.787-1.448,3.235-3.235,3.235c-1.786,0-3.235-1.448-3.235-3.235
				c0-1.787,1.448-3.235,3.235-3.235C233.433,150.732,234.881,152.18,234.881,153.966z"/>
			<path style="opacity:0.7;fill:#831616;" d="M251.411,153.966c0,1.787-1.448,3.235-3.235,3.235c-1.786,0-3.235-1.448-3.235-3.235
				c0-1.787,1.448-3.235,3.235-3.235C249.963,150.732,251.411,152.18,251.411,153.966z"/>
		</g>
	</g>
</g>
<g id="Plants">
	<g>
		<g>
			<g>
				<path style="fill:#831616;" d="M102.673,344.582c-3.298-4.065-9.671-6.777-16.668-8.082c0.549,2.001,0.137,3.848-1.046,4.301
					c-1.32,0.506-3.09-0.911-3.953-3.165c-0.244-0.636-0.379-1.266-0.433-1.861c-7.055-0.573-14.109,0.238-18.817,2.498
					c0,0,4.609,4.155,9.83,15.079c0.16-0.006,0.321-0.011,0.484-0.009c3.379,0.034,6.102,1.666,6.082,3.644
					c-0.014,1.445-1.492,2.673-3.603,3.218c0.274,0.7,0.548,1.411,0.821,2.15c4.974,13.461,18.242,3.73,18.123-5.483
					C93.494,356.871,110.062,353.689,102.673,344.582z"/>
				<g>
					<path style="fill:#263238;" d="M67.408,340.101c-0.243-0.092-0.373-0.136-0.373-0.136
						C67.16,340.009,67.283,340.056,67.408,340.101z"/>
					<path style="fill:#263238;" d="M114.109,386.493c-0.286-0.724-0.733-1.788-1.35-3.129c-2.682-5.802-8.573-16.681-18.791-26.595
						h-0.009c-1.85-1.779-3.835-3.531-5.971-5.221c-0.116-1.672,0.018-6.132,4.121-8.689c0,0-4.55,0.679-5.203,7.849
						c-5.516-4.193-11.979-7.92-19.497-10.611c2.101,0.796,12.81,5.158,23.823,15.537c-0.152,0.009-5.882,0.161-8.358,5.9
						c0.206-0.286,3.692-5.051,9.539-4.774c0.349,0.34,0.697,0.688,1.046,1.046c6.258,6.365,12.435,14.732,16.994,25.558
						c0.536,1.27,1.055,2.583,1.547,3.924c0.215,0.59,0.876,0.903,1.466,0.67c0.447-0.17,0.724-0.599,0.724-1.046
						C114.189,386.771,114.162,386.627,114.109,386.493z"/>
				</g>
			</g>
			<g>
				<path style="fill:#831616;" d="M121.826,344.675c2.222-4.739,7.755-8.905,14.232-11.856c-0.051,2.075,0.793,3.768,2.051,3.923
					c1.403,0.173,2.78-1.628,3.075-4.024c0.083-0.676,0.063-1.32-0.028-1.91c6.709-2.255,13.751-3.165,18.865-2.105
					c0,0-3.474,5.142-5.912,17.002c-0.157,0.033-0.314,0.067-0.473,0.108c-3.271,0.846-5.522,3.085-5.026,5.001
					c0.362,1.399,2.091,2.235,4.271,2.256c-0.098,0.745-0.192,1.502-0.279,2.284c-1.587,14.263-16.808,8.012-18.91-0.96
					C133.693,354.393,116.846,355.293,121.826,344.675z"/>
				<g>
					<path style="fill:#F5F5F5;" d="M154.976,331.837c0.214-0.147,0.329-0.222,0.329-0.222
						C155.194,331.688,155.087,331.763,154.976,331.837z"/>
					<path style="fill:#263238;" d="M136.332,351.522c7.25-10.879,15.197-17.199,17.959-19.202
						c-6.338,4.3-11.496,9.297-15.689,14.509c-0.644-1.841-1.439-3.156-2.271-4.085c-0.018-0.027-0.045-0.054-0.063-0.072
						c-2.217-2.44-4.604-2.208-4.604-2.208c2.253,0.724,3.692,2.137,4.604,3.576c0.027,0.036,0.045,0.063,0.063,0.098
						c0.903,1.457,1.278,2.941,1.43,3.763c-0.492,0.635-0.965,1.269-1.43,1.904c-0.018,0.027-0.045,0.054-0.063,0.089
						c-1.082,1.493-2.101,3.004-3.039,4.505c-1.207,1.931-2.297,3.853-3.281,5.757c-0.027,0.036-0.045,0.063-0.054,0.098
						c-4.747,9.145-7.116,17.7-8.242,23.108c-0.447,2.11-0.706,3.746-0.84,4.747c-0.08,0.626,0.357,1.189,0.983,1.26
						c0.045,0.009,0.098,0.009,0.143,0.009c0.563,0,1.055-0.429,1.109-1.01c0.188-1.707,0.42-3.379,0.697-5.006
						c1.269-7.625,3.477-14.366,6.15-20.257c0.018-0.045,0.036-0.08,0.054-0.116c1.243-2.744,2.601-5.301,4.014-7.679v-0.009
						c0.241-0.429,0.5-0.858,0.76-1.278c0.527-0.161,1.046-0.268,1.546-0.34h0.063c4.863-0.635,8.591,2.503,8.796,2.682
						c-2.995-3.942-7.134-3.996-8.796-3.835c-0.018,0.009-0.045,0.009-0.063,0.009c-0.402,0.045-0.643,0.098-0.671,0.107
						c0.223-0.349,0.447-0.688,0.671-1.028C136.287,351.594,136.314,351.558,136.332,351.522z"/>
				</g>
			</g>
			<g>
				<path style="fill:#831616;" d="M126.561,343.249c-1.05-5.127-5.454-10.474-11.059-14.86c-0.437,2.029-1.653,3.477-2.912,3.333
					c-1.404-0.16-2.321-2.234-2.047-4.632c0.077-0.677,0.248-1.298,0.475-1.851c-5.994-3.763-12.627-6.298-17.847-6.466
					c0,0,2.173,5.813,1.764,17.914c0.145,0.069,0.29,0.138,0.434,0.215c2.982,1.589,4.645,4.293,3.715,6.039
					c-0.68,1.276-2.557,1.683-4.681,1.193c-0.079,0.747-0.165,1.505-0.263,2.286c-1.798,14.237,14.464,11.726,18.609,3.496
					C112.747,349.917,128.915,354.738,126.561,343.249z"/>
				<path style="opacity:0.2;fill:#FFFFFF;" d="M126.561,343.249c-1.05-5.127-5.454-10.474-11.059-14.86
					c-0.437,2.029-1.653,3.477-2.912,3.333c-1.404-0.16-2.321-2.234-2.047-4.632c0.077-0.677,0.248-1.298,0.475-1.851
					c-5.994-3.763-12.627-6.298-17.847-6.466c0,0,2.173,5.813,1.764,17.914c0.145,0.069,0.29,0.138,0.434,0.215
					c2.982,1.589,4.645,4.293,3.715,6.039c-0.68,1.276-2.557,1.683-4.681,1.193c-0.079,0.747-0.165,1.505-0.263,2.286
					c-1.798,14.237,14.464,11.726,18.609,3.496C112.747,349.917,128.915,354.738,126.561,343.249z"/>
				<g>
					<path style="fill:#263238;" d="M97.34,323.003c-0.174-0.194-0.268-0.293-0.268-0.293
						C97.163,322.807,97.25,322.905,97.34,323.003z"/>
					<path style="fill:#263238;" d="M110.318,342.654c0.671-1.538,2.843-5.435,7.661-5.802c0,0-4.344-1.493-8.233,4.559
						c-2.896-6.124-6.794-12.283-12.059-18.013c2.065,2.378,8.948,10.96,13.624,24.378c-0.107-0.045-3.29-1.6-7-0.367
						c-1.019,0.34-2.083,0.885-3.129,1.743c0.197-0.098,1.484-0.715,3.308-1.028c2.029-0.358,4.72-0.331,7.348,1.198
						c0.152,0.465,0.304,0.939,0.447,1.412c2.771,9.047,4.416,20.042,3.093,32.629c-0.072,0.688-0.152,1.377-0.241,2.074
						c-0.081,0.626,0.358,1.207,0.983,1.278c0.045,0.009,0.089,0.009,0.134,0.009c0.572,0,1.055-0.429,1.117-1.01
						c0.054-0.581,0.125-1.368,0.179-2.351c0.375-5.998,0.411-19.032-4.353-33.326C112.384,347.607,111.436,345.131,110.318,342.654
						z"/>
				</g>
			</g>
			<g>
				<path style="fill:#263238;" d="M132.488,386.493l-0.018,0.286v0.009l-0.08,1.225v0.009l-1.447,22.036
					c-0.086,1.312-1.176,2.332-2.491,2.332h-23.565c-1.315,0-2.404-1.02-2.491-2.332l-1.447-22.036v-0.009l-0.08-1.225v-0.009
					l-0.018-0.286c-0.018-0.313,0.027-0.608,0.098-0.894v-0.027c0.009-0.027,0.018-0.063,0.027-0.089
					c0.036-0.107,0.072-0.206,0.116-0.313c0.045-0.107,0.089-0.206,0.152-0.313c0.018-0.027,0.027-0.054,0.036-0.072
					c0.036-0.063,0.072-0.116,0.116-0.17c0.027-0.036,0.044-0.072,0.071-0.107c0.054-0.063,0.107-0.134,0.161-0.188
					c0.107-0.125,0.233-0.232,0.358-0.331c0.054-0.045,0.107-0.08,0.161-0.125c0.385-0.259,0.84-0.438,1.332-0.483
					c0.099-0.009,0.206-0.018,0.304-0.018h25.772c0.098,0,0.206,0.009,0.304,0.018c0.009,0,0.018,0,0.036,0.009
					c0.009,0,0.009,0,0.018,0h0.036v0.009h0.036c0.688,0.098,1.287,0.438,1.725,0.921c0.054,0.054,0.107,0.125,0.161,0.188
					c0.027,0.036,0.045,0.072,0.072,0.107c0.045,0.054,0.08,0.107,0.116,0.17c0.009,0.018,0.018,0.045,0.036,0.072
					c0.054,0.107,0.107,0.205,0.152,0.313c0.045,0.107,0.081,0.206,0.116,0.313c0.009,0.027,0.018,0.063,0.027,0.089v0.027
					C132.462,385.885,132.506,386.181,132.488,386.493z"/>
				<path style="fill:#263238;" d="M132.39,385.575c-0.323-1.262-1.454-2.214-2.833-2.214h-25.772c-1.378,0-2.509,0.951-2.833,2.214
					l-0.08,1.217l0.08,1.217c0.323,1.262,1.454,2.214,2.833,2.214h25.772c1.379,0,2.509-0.952,2.833-2.214l0.08-1.217
					L132.39,385.575z"/>
			</g>
		</g>
		<polygon style="fill:#263238;" points="132.99,388.861 100.198,388.861 99.604,383.362 133.584,383.362 		"/>
	</g>
</g>
<g id="Character">
	<g>
		<g>
			<path style="fill:#FF8B7B;" d="M227.165,223.536l2.243,4.048c0.074,0.133,0.119,0.28,0.134,0.431l0.531,5.521
				c0.029,0.297-0.063,0.592-0.255,0.82l-1.321,1.571c-0.222,0.264-7.431,0.111-7.431,0.111c-0.622-0.027-1.1-0.56-1.059-1.181
				l0.459-6.977c0.009-0.138,0.044-0.273,0.102-0.398l1.905-4.073c0.195-0.417,0.626-0.669,1.084-0.637l2.717,0.194
				C226.647,222.994,226.983,223.208,227.165,223.536z"/>
		</g>
		<g>
			<g>
				<g>
					<g>
						<g>
							<path style="fill:#FF8B7B;" d="M212.642,352.91c-12.01,14.12-26.74,29.7-26.74,29.7l-9.31-0.31c0,0,11.57-21.43,22.66-39.06
								L212.642,352.91z"/>
							<path style="fill:#831616;" d="M252.742,277.68c0,0-11.89,29.35-14.69,34.94c-5.4,10.81-6.53,13.1-11.22,21.67
								c-1.76,3.21-5.53,8.19-10.11,13.76c-1.31,1.58-2.67,3.21-4.08,4.86l-13.39-9.67c1.07-1.69,2.13-3.36,3.18-4.96
								c4.58-7.01,8.86-12.91,11.96-15.84c0,0,10.055-51.535,17.095-72.8c1.663-5.024,6.905-13.281,7.885-15.021
								c0,0,17.049,29.581,18.129,31.131C258.582,267.3,252.742,277.68,252.742,277.68z"/>
							<path style="opacity:0.3;enable-background:new    ;" d="M256.623,269.834c0,0-3.148,7.989-7.383,16.431
								c0,0-0.724-11.76-12.898-32.019C255.169,255.841,256.623,269.834,256.623,269.834z"/>
							<g>
								<polygon style="fill:#FF8B7B;" points="179.805,377.076 175.367,384.301 181.307,388.99 186.72,381.485 								"/>
								<polygon style="opacity:0.2;" points="197.584,346.266 210.389,355.49 214.141,351.071 199.407,343.298 								"/>
							</g>
							<g>
								<path style="fill:#831616;" d="M182.477,390.418c-0.058-0.063-0.074-0.156-0.038-0.235c0.037-0.079,0.12-0.126,0.207-0.117
									c0.154,0.015,3.647,0.365,4.602,1.539c0.18,0.215,0.27,0.492,0.25,0.773c0.005,0.331-0.199,0.628-0.509,0.742
									c-0.564,0.172-1.594-0.318-2.479-0.948C183.782,391.647,183.102,391.061,182.477,390.418z M183.184,390.581
									c1.208,1.107,3.01,2.375,3.671,2.147c0.089-0.023,0.205-0.093,0.229-0.392c0.02-0.174-0.04-0.347-0.163-0.471
									c-0.084-0.104-0.182-0.196-0.293-0.272C185.554,391.041,184.386,390.698,183.184,390.581z"/>
								<path style="fill:#831616;" d="M182.395,390.345c-0.027-0.07-0.015-0.148,0.033-0.206c0.073-0.082,1.631-1.866,3.068-1.966
									c0.417-0.034,0.83,0.103,1.144,0.38c0.431,0.378,0.409,0.715,0.289,0.921c-0.419,0.908-3.228,1.233-4.348,1.004
									c-0.029-0.005-0.056-0.02-0.074-0.044C182.458,390.42,182.419,390.388,182.395,390.345z M186.298,388.793
									c-0.212-0.154-0.472-0.227-0.733-0.203c-0.967,0.235-1.84,0.762-2.499,1.508c1.254,0.107,3.235-0.302,3.535-0.815
									c0.018-0.052,0.085-0.188-0.2-0.43L186.298,388.793L186.298,388.793z"/>
								<path style="fill:#263238;" d="M182.46,388.904l-7.768-5.534c-0.293-0.209-0.691-0.187-0.959,0.053l-5.906,5.319
									c-0.527,0.468-0.576,1.275-0.107,1.802c0.06,0.068,0.127,0.129,0.2,0.182c2.835,1.946,5.434,3.567,8.917,6.055
									c4.113,2.932,2.719,2.681,7.506,6.195c2.887,2.115,5.78-0.818,4.661-1.861c-5.149-4.741-4.519-6.867-5.259-10.445
									C183.548,389.945,183.091,389.316,182.46,388.904z"/>
							</g>
						</g>
						<g>
							<g>
								<path style="fill:#263238;" d="M282.048,146.807c0.074,0.574-0.162,1.08-0.539,1.13c-0.376,0.05-0.769-0.397-0.826-0.957
									c-0.057-0.56,0.163-1.08,0.54-1.124C281.601,145.812,281.968,146.235,282.048,146.807z"/>
								<g>
									<path style="fill:#263238;" d="M280.887,145.804c0.534,0.045,1-0.2,1.322-0.854c-0.064,0.327-0.134,0.666-0.329,0.932
										c-0.195,0.265-0.555,0.43-0.84,0.286L280.887,145.804z"/>
								</g>
							</g>
							<path style="fill:#BA4D3C;" d="M280.584,148.416l3.382,3.475c0,0-1.418,1.187-3.542,0.567L280.584,148.416z"/>
							<path style="fill:#FF8B7B;" d="M260.199,169.538c0,0,4.913-0.69,4.499-9.762c0,0,4.478-2.25,7.529,0.322
								c3.05,2.572-2.332,9.045,1.432,11.545C277.421,174.142,260.199,169.538,260.199,169.538z"/>
							<path style="opacity:0.2;" d="M273.173,163.123l-3.393,0.194c0,0,0.766,2.826,2.643,3.856
								C272.657,165.82,273.064,164.399,273.173,163.123z"/>
							<path style="fill:#FF8B7B;" d="M259.739,147.29c0.653,7.673,0.764,10.94,4.737,14.792c5.981,5.786,15.273,3.319,16.923-4.401
								c1.489-6.945,0.174-18.298-7.428-21.222c-5.42-2.082-11.501,0.624-13.582,6.044
								C259.804,144.027,259.582,145.666,259.739,147.29z"/>
							<path style="fill:#263238;" d="M281.812,142.873c-0.049,0.089-0.139,0.149-0.241,0.16c-0.765,0.045-1.462,0.455-1.872,1.103
								c-0.078,0.146-0.259,0.203-0.406,0.127c-0.146-0.081-0.202-0.263-0.126-0.412c0.502-0.831,1.379-1.364,2.349-1.424
								c0.167-0.016,0.315,0.107,0.331,0.274c0,0,0,0.001,0,0.001C281.85,142.761,281.839,142.82,281.812,142.873z"/>
							<g>
								<path style="fill:#831616;" d="M258.278,170.144l1.114-2.166c0.487-0.947,1.532-1.464,2.579-1.27
									c4.016,0.741,13.598,2.647,14.919,4.19c1.678,1.959,1.538,4.147,1.538,4.147L258.278,170.144z"/>
							</g>
							<g style="opacity:0.7;">
								<path style="opacity:0.5;fill:#FFFFFF;" d="M258.278,170.144l1.114-2.166c0.487-0.947,1.532-1.464,2.579-1.27
									c4.016,0.741,13.598,2.647,14.919,4.19c1.678,1.959,1.538,4.147,1.538,4.147L258.278,170.144z"/>
							</g>
							<g>
								<g>
									<path style="fill:#831616;" d="M247.234,189.208l-9.046,4.24c-3.957,2.054-6.292,4.762-7.913,13.055
										c-1.707,8.73-3.11,17.033-3.11,17.033c-2.53,2.039-5.951-0.16-5.951-0.16s-2.247-12.657,0.936-28.436
										c1.901-9.424,20.827-22.156,30.587-25.203c1.545-0.482,3.161-0.74,4.924-0.764l1.721,0.227l-11.457,20.578L247.234,189.208
										z"/>
									<path style="opacity:0.6;" d="M247.234,189.208l-9.046,4.24c-3.957,2.054-6.292,4.762-7.913,13.055
										c-1.707,8.73-3.11,17.033-3.11,17.033c-2.53,2.039-5.951-0.16-5.951-0.16s-2.247-12.657,0.936-28.436
										c1.901-9.424,20.827-22.156,30.587-25.203c1.545-0.482,3.161-0.74,4.924-0.764l1.721,0.227l-11.457,20.578L247.234,189.208
										z"/>
								</g>
							</g>
							<g>
								<path style="fill:#831616;" d="M284.392,203.753c3.08-8.793,3.578-9.067,2.926-13.132c-0.282-1.758-0.838-4.353-1.241-5.697
									c-3.798-12.653-14.064-13.27-25.432-15.534c-11.367-2.264-12.784,3.363-13.341,18.025
									c-0.557,14.662-1.264,38.313-1.264,38.313l0,0c7.599,4.268,16.169,6.51,24.885,6.51h7.907c0,0,0.164-6.594,1.591-12.384
									C284.392,203.753,281.867,210.96,284.392,203.753z"/>
							</g>
							<g style="opacity:0.6;">
								<path d="M284.392,203.753c3.08-8.793,3.578-9.067,2.926-13.132c-0.282-1.758-0.838-4.353-1.241-5.697
									c-3.798-12.653-14.064-13.27-25.432-15.534c-11.367-2.264-12.784,3.363-13.341,18.025
									c-0.557,14.662-1.264,38.313-1.264,38.313l0,0c7.599,4.268,16.169,6.51,24.885,6.51h7.907c0,0,0.164-6.594,1.591-12.384
									C284.392,203.753,281.867,210.96,284.392,203.753z"/>
							</g>
							<path style="fill:#263238;" d="M276.483,151.883c0,0,9.025-15.421,1.781-18.848c-11.62-5.497-23.298-3.852-29.983,7.731
								c-5.504,9.538-2.903,19.63,8.537,25.698c15.278,8.103,17.735-5.598,17.006-12.023
								C273.824,154.442,275.286,154.377,276.483,151.883z"/>
							<path style="fill:#FF8B7B;" d="M275.295,148.579c1.205,1.012,1.956,2.462,2.089,4.03c0.16,2.081-1.806,2.734-3.56,1.834
								c-1.59-0.815-3.569-2.879-2.905-4.817C271.582,147.686,273.808,147.358,275.295,148.579z"/>
						</g>
						<g>
							<path style="fill:#831616;" d="M276.636,335.037c-1.39,9.3-4.314,17.483-6.394,25.603c-0.53,2.08-1.07,4.1-1.61,6.05
								l-17.96-1.63c0.32-1.94,0.66-3.91,1.01-5.89c1.62-9.16,3.56-18.45,5.73-25.83c0,0-3.34-32.14-4.21-45.09
								c-0.01-0.05-0.02-0.1-0.01-0.16c-0.75-11-1.5-19.84-1.5-19.84s-8.39-3.27-13.18-10.04c-1.3-1.81-2.33-3.88-2.85-6.2
								c-0.24-0.98-0.39-2.01-0.42-3.08c-0.42-12.55,10.82-22.79,10.82-22.79c4.04,1.78,8.22,3.16,12.5,4.14s8.65,1.56,13.06,1.71
								l7.21,0.25C278.832,232.24,282.056,298.807,276.636,335.037z"/>
						</g>
						<g>
							<g>
								<g>
									<path style="fill:#FF8B7B;" d="M319.849,143.23c-0.178-0.336,6.099-9.129,6.099-9.129l2.146,8.659l-0.849,1.231
										c-0.814,1.18-2.017,2.174-3.287,2.275C323.959,146.266,319.873,143.275,319.849,143.23z"/>
									<path style="fill:#FF8B7B;" d="M325.929,134.119l7.007-1.737l-0.142,5.3c-0.048,1.781-1.094,3.384-2.705,4.145
										l-2.013,0.951C328.075,142.778,324.06,138.397,325.929,134.119z"/>
								</g>
								<path style="fill:#FF8B7B;" d="M334.758,131.93c0.832-0.196,1.395,0.439,1.131,1.252l0,0
									c-0.124,0.383-0.449,0.668-0.846,0.74l-4.815,0.882l-0.735-1.555L334.758,131.93z"/>
							</g>
							<path style="fill:#831616;" d="M309.903,172.386c7.366-7.243,15.53-25.899,15.53-25.899c0.145-1.747-3.912-3.083-5.584-3.258
								c-1.34-0.14,0,0,0,0c-5.266,5.709-14.405,19.884-15.897,21.407c-0.256,0.234-0.533,0.441-0.827,0.62
								c-0.091,0.06-0.189,0.107-0.292,0.141l-0.613,0.264c-1.109,0.499-2.224,0.99-3.382,1.429
								c-4.591,1.839-0.602,0.447-5.463,1.888c-4.861,1.441-9.866,2.862-14.713,4.097l-0.073,0.065
								c-3.267,0.791-5.269,5.61-4.472,9.038c0.798,3.428,4.093,5.566,7.36,4.775C281.478,186.955,307.152,178.699,309.903,172.386z
								"/>
							<path style="opacity:0.6;" d="M309.903,172.386c7.366-7.243,15.53-25.899,15.53-25.899c0.145-1.747-3.912-3.083-5.584-3.258
								c-1.34-0.14,0,0,0,0c-5.266,5.709-14.405,19.884-15.897,21.407c-0.256,0.234-0.533,0.441-0.827,0.62
								c-0.091,0.06-0.189,0.107-0.292,0.141l-0.613,0.264c-1.109,0.499-2.224,0.99-3.382,1.429
								c-4.591,1.839-0.602,0.447-5.463,1.888c-4.861,1.441-9.866,2.862-14.713,4.097l-0.073,0.065
								c-3.267,0.791-5.269,5.61-4.472,9.038c0.798,3.428,4.093,5.566,7.36,4.775C281.478,186.955,307.152,178.699,309.903,172.386z
								"/>
						</g>
					</g>
				</g>
			</g>
			<path style="fill:#263238;" d="M245.798,153.91c0.018,3.731-2.493,7.014-5.336,9.43c-2.843,2.416-6.052,4.399-8.662,7.066
				c-10.531,10.764-10.344,18.352-8.951,21.813c0.306-2.796,7.909-10.161,7.909-10.161c-1.655,2.292-2.844,4.602-4.32,7.013
				c-2.74,4.474-4.693,15.505-0.153,19.663c0,0,3.793-8.677,10.846-11.109c12.207-4.209-0.535-2.317,2.968,8.02
				c1.629-4.006,11.42-6.593,15.043-8.953c5.771-3.76,7.554-9.924,6.542-16.737c1.956,3.103,1.943,8.847,0.339,12.146
				c2.544-1.395,9.661-0.457,8.346-23.127c0,0,0.313,2.056,2.272,3.835c2.338,2.124,6.704,1.147,8.438-0.359
				c-4.428-1.594-6.656-6.824-7.255-18.008C266.164,149.244,254.34,150.344,245.798,153.91z"/>
			<path style="fill:#FF8B7B;" d="M267.331,366.572c-5.16,18.61-13.469,41.511-13.469,41.511l-7.321-1.915
				c0,0,2.18-24.407,4.93-41.107L267.331,366.572z"/>
			<g>
				<path style="fill:#831616;" d="M255.807,408.999c-0.081-0.03-0.136-0.106-0.14-0.193c-0.003-0.087,0.05-0.166,0.131-0.198
					c0.144-0.056,3.418-1.323,4.801-0.709c0.258,0.111,0.464,0.317,0.572,0.576c0.154,0.292,0.107,0.65-0.118,0.892
					c-0.426,0.408-1.565,0.437-2.639,0.275C257.527,409.505,256.656,409.289,255.807,408.999z M256.512,408.825
					c1.578,0.441,3.759,0.756,4.244,0.254c0.069-0.061,0.141-0.176,0.027-0.454c-0.06-0.164-0.192-0.292-0.359-0.347
					c-0.122-0.055-0.251-0.092-0.384-0.11C258.834,408.163,257.636,408.385,256.512,408.825z"/>
				<path style="fill:#831616;" d="M255.701,408.971c-0.056-0.05-0.08-0.126-0.064-0.199c0.028-0.107,0.61-2.402,1.847-3.141
					c0.357-0.219,0.787-0.284,1.192-0.178c0.555,0.141,0.688,0.453,0.674,0.691c0.038,0.999-2.321,2.559-3.423,2.862
					c-0.028,0.009-0.059,0.007-0.086-0.005C255.792,409.009,255.742,408.998,255.701,408.971z M258.48,405.821
					c-0.259-0.042-0.524,0.012-0.746,0.15c-0.757,0.648-1.297,1.512-1.547,2.476c1.166-0.472,2.748-1.732,2.784-2.326
					c-0.007-0.055-0.009-0.206-0.373-0.293L258.48,405.821L258.48,405.821z"/>
				<path style="fill:#263238;" d="M255.108,407.657l-9.431-1.422c-0.355-0.054-0.701,0.146-0.831,0.481l-2.861,7.415
					c-0.259,0.656,0.063,1.397,0.72,1.656c0.084,0.033,0.171,0.057,0.261,0.072c3.408,0.454,6.46,0.723,10.691,1.367
					c4.995,0.754,3.637,1.161,9.497,2.13c3.531,0.58,4.785-3.344,3.315-3.768c-6.736-1.9-7.137-4.08-9.415-6.938
					C256.548,408.092,255.856,407.738,255.108,407.657z"/>
			</g>
			<path style="opacity:0.2;" d="M250.89,368.762c0.016-0.105,15.381,1.545,15.381,1.545l1.06-3.735l-15.859-1.512L250.89,368.762z"
				/>
		</g>
	</g>
</g>
</svg>
